<svg xmlns="http://www.w3.org/2000/svg" xmlns:xlink="http://www.w3.org/1999/xlink" width="1920" zoomAndPan="magnify" viewBox="0 0 1440 809.999993" height="1080" preserveAspectRatio="xMidYMid meet" version="1.0"><defs><clipPath id="e40cf8d052"><path d="M 510.359375 99.511719 L 889.859375 99.511719 L 889.859375 643 L 510.359375 643 Z M 510.359375 99.511719 " clip-rule="nonzero"/></clipPath></defs><g clip-path="url(#e40cf8d052)"><path fill="#d31111" d="M 700.101562 99.691406 C 804.890625 99.691406 889.84375 184.644531 889.84375 289.4375 C 889.84375 325.898438 879.550781 359.949219 861.722656 388.863281 C 840.339844 424.285156 818.957031 459.710938 797.574219 495.132812 C 771.53125 537.464844 750.457031 571.722656 724.417969 614.058594 C 701.457031 651.382812 699.90625 652.300781 676.824219 614.785156 C 650.914062 572.660156 629.132812 537.253906 603.222656 495.132812 C 581.886719 460.109375 560.558594 425.082031 539.222656 390.058594 C 520.941406 360.890625 510.359375 326.402344 510.359375 289.4375 C 510.359375 184.644531 595.308594 99.691406 700.101562 99.691406 Z M 700.101562 194.824219 C 747.078125 194.824219 785.164062 232.90625 785.164062 279.882812 C 785.164062 326.863281 747.082031 364.945312 700.101562 364.945312 C 653.121094 364.945312 615.039062 326.863281 615.039062 279.882812 C 615.039062 232.90625 653.121094 194.824219 700.101562 194.824219 Z M 700.101562 194.824219 " fill-opacity="1" fill-rule="evenodd"/></g></svg>